<?xml version="1.0" ?><svg id="Layer_1" style="enable-background:new 0 0 30 30;" version="1.1" viewBox="0 0 30 30" xml:space="preserve" xmlns="http://www.w3.org/2000/svg" xmlns:xlink="http://www.w3.org/1999/xlink"><circle cx="15" cy="25" r="2"/><path d="M25,7v17c0,0-3-1-5-1s-5,1-5,1s-3-1-5-1s-5,1-5,1V7C3.895,7,3,7.895,3,9v15c0,1.105,0.895,2,2,2h20c1.105,0,2-0.895,2-2V9  C27,7.895,26.105,7,25,7z"/><path d="M20,5  c-2,0-5,1-5,1s-3-1-5-1S5,6,5,6v18c0,0,3-1,5-1s5,1,5,1s3-1,5-1s5,1,5,1V6C25,6,22,5,20,5z" style="fill:none;stroke:#000000;stroke-width:2;stroke-linecap:round;stroke-linejoin:round;stroke-miterlimit:10;"/><line style="fill:none;stroke:#000000;stroke-width:2;stroke-linecap:round;stroke-linejoin:round;stroke-miterlimit:10;" x1="15" x2="15" y1="6" y2="24"/></svg>