<?xml version="1.0" ?><svg viewBox="0 0 512 512" xmlns="http://www.w3.org/2000/svg"><defs><style>.cls-1{fill:#31c292;}.cls-2{fill:#2aa57d;}.cls-3{fill:#0071af;}.cls-4{fill:#7db6d6;}.cls-5{fill:#006095;}.cls-6{fill:#5b849b;}.cls-7{fill:#bdecdc;}.cls-8{fill:#00b378;}.cls-9{fill:#bebebe;}.cls-10{fill:#dfdfdf;}.cls-11{fill:#ea8383;}.cls-12{fill:#f9dbdb;}.cls-13{fill:#a2a2a2;}.cls-14{fill:#010202;opacity:0.15;}</style></defs><title/><g data-name="/ FLAT" id="_FLAT"><path class="cls-1" d="M435.31372,99.31372,364.68628,28.68628A16,16,0,0,0,353.3726,24H88A16,16,0,0,0,72,40V472a16,16,0,0,0,16,16H424a16,16,0,0,0,16-16V110.6274A16,16,0,0,0,435.31372,99.31372Z"/><path class="cls-2" d="M85.324,487.75867A16.03767,16.03767,0,0,0,88,488H424a16.00008,16.00008,0,0,0,16-16V120.00037C440,318.7804,282.39233,480.74493,85.324,487.75867Z"/><polygon class="cls-3" points="216 264 128 336 128 488 304 488 304 336 216 264"/><rect class="cls-4" height="112" width="64" x="184" y="376"/><path class="cls-5" d="M128.00024,488H304V336l-1.46777-1.20081A176.03021,176.03021,0,0,1,128.00024,488Z"/><path class="cls-6" d="M184,478.89825V488h64V440.73175A175.88722,175.88722,0,0,1,184,478.89825Z"/><rect class="cls-7" height="16" width="144" x="184" y="56"/><rect class="cls-7" height="16" width="24" x="104" y="144"/><rect class="cls-7" height="16" width="24" x="104" y="192"/><rect class="cls-7" height="16" width="24" x="104" y="240"/><rect class="cls-7" height="16" width="192" x="144" y="96"/><rect class="cls-7" height="16" width="264" x="144" y="144"/><rect class="cls-7" height="16" width="264" x="144" y="192"/><rect class="cls-7" height="16" width="48" x="144" y="240"/><rect class="cls-7" height="16" width="168" x="240" y="240"/><rect class="cls-7" height="16" width="24" x="104" y="96"/><path class="cls-8" d="M435.31372,99.31372,364.68628,28.68628A15.97444,15.97444,0,0,0,360,25.4563V88a16.00008,16.00008,0,0,0,16,16h62.5437A15.97829,15.97829,0,0,0,435.31372,99.31372Z"/><path class="cls-9" d="M248,456H488a0,0,0,0,1,0,0v16a16,16,0,0,1-16,16H264a16,16,0,0,1-16-16V456A0,0,0,0,1,248,456Z"/><path class="cls-10" d="M456,296H296a16.00008,16.00008,0,0,0-16,16V456H472V312A16.00008,16.00008,0,0,0,456,296Z"/><circle class="cls-11" cx="376" cy="376" r="48"/><polygon class="cls-12" points="365.657 397.657 354.343 386.343 368 372.687 368 352 384 352 384 379.313 365.657 397.657"/><path class="cls-9" d="M402.14819,456H472V372.81927A192.72876,192.72876,0,0,1,402.14819,456Z"/><path class="cls-13" d="M296.00024,488H472a16.00008,16.00008,0,0,0,16-16V456H402.14819A191.09039,191.09039,0,0,1,296.00024,488Z"/><path class="cls-14" d="M356.28564,419.762A47.99517,47.99517,0,0,0,419.762,356.28552,96.21549,96.21549,0,0,1,356.28564,419.762Z"/></g></svg>