<?xml version="1.0" standalone="no"?>
<!DOCTYPE svg PUBLIC "-//W3C//DTD SVG 20010904//EN"
 "http://www.w3.org/TR/2001/REC-SVG-20010904/DTD/svg10.dtd">
<svg version="1.0" xmlns="http://www.w3.org/2000/svg"
 width="518.000000pt" height="426.000000pt" viewBox="0 0 518.000000 426.000000"
 preserveAspectRatio="xMidYMid meet">

<g transform="translate(0.000000,426.000000) scale(0.100000,-0.100000)"
fill="#000000" stroke="none">
<path d="M548 4191 c-175 -9 -196 -33 -197 -218 l-1 -103 -120 0 c-119 0 -119
0 -155 -31 l-35 -31 0 -1657 0 -1657 38 -37 38 -37 2047 0 c1126 0 2047 3
2047 8 0 4 -53 60 -118 125 l-117 117 -1843 0 -1842 0 0 1475 0 1475 29 0 29
0 4 -1400 3 -1400 38 -37 37 -38 853 -7 c468 -5 1005 -7 1192 -5 l340 2 -102
53 c-127 64 -219 120 -285 172 l-50 40 -884 0 -884 0 0 1465 0 1465 748 0 747
0 115 -125 115 -124 5 -402 5 -401 58 47 57 47 0 352 0 352 118 127 117 126
748 1 747 0 0 -560 0 -560 65 -94 c35 -51 94 -149 130 -217 l65 -124 0 623 0
622 30 0 30 0 0 -1203 0 -1202 125 -125 125 -125 0 1422 0 1421 -35 31 c-36
31 -36 31 -154 31 l-119 0 -3 118 c-4 134 -16 162 -77 190 -34 15 -115 17
-887 17 -711 0 -854 -2 -875 -14 -14 -8 -67 -52 -117 -99 l-93 -84 -87 82
c-49 45 -101 89 -118 97 -27 15 -114 17 -780 19 -412 1 -803 -1 -867 -5z"/>
<path d="M867 3684 c-4 -4 -7 -121 -7 -261 l0 -253 165 0 165 0 -2 258 -3 257
-156 3 c-85 1 -158 -1 -162 -4z"/>
<path d="M1317 3683 c-4 -3 -7 -33 -7 -65 l0 -58 320 0 320 0 0 65 0 65 -313
0 c-173 0 -317 -3 -320 -7z"/>
<path d="M2850 3625 l0 -65 545 0 546 0 -3 63 -3 62 -542 3 -543 2 0 -65z"/>
<path d="M1317 3233 c-4 -3 -7 -33 -7 -65 l0 -58 320 0 320 0 0 65 0 65 -313
0 c-173 0 -317 -3 -320 -7z"/>
<path d="M3047 3025 c-398 -75 -720 -354 -846 -730 -39 -118 -55 -249 -48
-405 9 -200 59 -353 172 -527 66 -101 201 -240 294 -302 337 -227 749 -253
1114 -69 34 17 75 40 91 51 l28 20 517 -517 516 -516 135 135 135 135 -517
518 -516 517 34 50 c18 27 50 87 69 134 179 428 88 892 -238 1208 -204 198
-445 301 -727 309 -92 2 -160 -1 -213 -11z m358 -260 c330 -69 587 -342 646
-690 14 -84 6 -245 -17 -330 -70 -262 -281 -488 -537 -576 -359 -123 -750 15
-963 342 -121 185 -163 438 -108 644 22 82 85 215 138 288 108 152 284 268
481 318 89 22 260 24 360 4z"/>
<path d="M867 2783 c-4 -3 -7 -33 -7 -65 l0 -58 545 0 545 0 0 65 0 65 -538 0
c-296 0 -542 -3 -545 -7z"/>
<path d="M867 2333 c-4 -3 -7 -33 -7 -65 l0 -58 545 0 545 0 0 65 0 65 -538 0
c-296 0 -542 -3 -545 -7z"/>
<path d="M867 1883 c-4 -3 -7 -33 -7 -65 l0 -58 545 0 545 0 0 65 0 65 -538 0
c-296 0 -542 -3 -545 -7z"/>
<path d="M860 1380 l0 -70 545 0 545 0 0 70 0 70 -545 0 -545 0 0 -70z"/>
</g>
</svg>
