<?xml version="1.0" standalone="no"?>
<!DOCTYPE svg PUBLIC "-//W3C//DTD SVG 20010904//EN"
 "http://www.w3.org/TR/2001/REC-SVG-20010904/DTD/svg10.dtd">
<svg version="1.0" xmlns="http://www.w3.org/2000/svg"
 width="474.000000pt" height="474.000000pt" viewBox="0 0 474.000000 474.000000"
 preserveAspectRatio="xMidYMid meet">

<g transform="translate(0.000000,474.000000) scale(0.100000,-0.100000)"
fill="#000000" stroke="none">
<path d="M2235 4649 c-256 -37 -486 -210 -597 -449 -44 -94 -60 -161 -65 -281
-7 -136 6 -221 47 -328 89 -229 283 -403 527 -473 111 -32 295 -32 407 0 280
80 490 299 557 578 32 134 24 294 -21 427 -50 150 -131 265 -254 363 -171 136
-385 194 -601 163z"/>
<path d="M1950 2865 c-155 -32 -281 -98 -398 -209 -93 -88 -141 -154 -121
-167 8 -5 93 -34 189 -65 217 -69 210 -66 355 -104 144 -38 240 -86 313 -157
l54 -53 63 59 c83 77 157 112 340 160 162 43 525 158 538 170 10 9 -58 97
-122 158 -89 85 -223 161 -356 199 -51 15 -113 18 -425 20 -274 2 -381 -1
-430 -11z"/>
<path d="M667 2576 c-2 -6 -5 -115 -6 -242 l-2 -230 83 -11 c99 -12 162 -40
217 -96 83 -83 86 -96 89 -401 l3 -270 -31 -62 c-53 -108 -151 -171 -283 -183
l-72 -6 1 -155 c0 -144 2 -160 25 -204 34 -68 112 -136 226 -194 119 -60 184
-83 463 -161 212 -59 530 -155 767 -232 67 -21 127 -39 133 -39 7 0 10 263 10
838 0 921 1 907 -62 1024 -58 109 -127 152 -336 208 -272 72 -687 215 -1059
363 -102 41 -163 60 -166 53z"/>
<path d="M3870 2529 c-322 -132 -770 -287 -1055 -364 -92 -25 -184 -54 -206
-66 -90 -45 -152 -124 -193 -242 -21 -61 -21 -75 -24 -919 l-3 -856 93 30
c208 67 652 201 793 239 442 119 640 217 723 358 26 45 27 50 27 206 l0 160
-48 7 c-109 15 -218 94 -263 191 -23 51 -24 58 -24 312 0 252 1 262 24 311 53
113 140 175 279 199 l37 6 0 244 c0 135 -3 245 -7 244 -5 -1 -73 -28 -153 -60z"/>
<path d="M598 1900 c-52 -28 -95 -85 -108 -142 -15 -74 -13 -295 5 -354 46
-155 236 -203 351 -89 24 25 47 59 53 81 6 22 11 111 11 200 0 153 -1 162 -26
213 -38 75 -86 105 -178 108 -56 3 -79 -1 -108 -17z"/>
<path d="M3945 1906 c-45 -19 -91 -70 -110 -120 -14 -36 -16 -73 -13 -212 3
-164 4 -170 31 -216 39 -68 103 -103 182 -102 35 0 73 8 91 17 51 26 101 93
113 149 14 64 14 287 0 342 -14 56 -62 114 -113 137 -48 22 -137 24 -181 5z"/>
</g>
</svg>
